<?xml version="1.0" encoding="utf-8"?>
<!-- Generator: Adobe Illustrator 19.0.0, SVG Export Plug-In . SVG Version: 6.00 Build 0)  -->
<svg version="1.1" id="Layer_1" xmlns="http://www.w3.org/2000/svg" xmlns:xlink="http://www.w3.org/1999/xlink" x="0px" y="0px"
	 viewBox="0 0 295 104" style="enable-background:new 0 0 295 104;" xml:space="preserve">
<style type="text/css">
	.st0{fill:#ffffff;}
</style>
<g id="XMLID_1_">
	<path id="XMLID_125_" class="st0" d="M23.4,79.7V29.3h18.4c5.6,0,9.9,1,13,3.1c3,2.1,4.5,5,4.5,8.7c0,2.7-0.9,5.1-2.8,7.1
		c-1.8,2-4.2,3.5-7,4.3v0.1c3.6,0.4,6.5,1.8,8.6,4c2.1,2.2,3.2,4.9,3.2,8.1c0,4.6-1.7,8.3-5,11s-7.8,4.1-13.5,4.1H23.4z M34.7,37.7
		v12h5c2.3,0,4.2-0.6,5.5-1.7c1.3-1.1,2-2.7,2-4.7c0-3.7-2.8-5.6-8.3-5.6H34.7z M34.7,58.1v13.3h6.2c2.6,0,4.7-0.6,6.2-1.8
		c1.5-1.2,2.2-2.9,2.2-5c0-2-0.7-3.6-2.2-4.7c-1.5-1.1-3.5-1.7-6.1-1.7H34.7z"/>
	<path id="XMLID_129_" class="st0" d="M194.4,79.7h-11.5l-20.8-31.7c-1.2-1.9-2.1-3.2-2.5-4.2h-0.1c0.2,1.8,0.3,4.5,0.3,8.2v27.7
		H149V29.3h12.2l20,30.7c0.9,1.4,1.8,2.8,2.5,4.1h0.1c-0.2-1.2-0.3-3.5-0.3-6.9V29.3h10.7V79.7z"/>
	<path id="XMLID_131_" class="st0" d="M209.8,80.6c-1.8,0-3.4-0.6-4.6-1.7s-1.8-2.5-1.8-4.1c0-1.7,0.6-3.1,1.9-4.1s2.8-1.6,4.7-1.6
		c1.9,0,3.5,0.5,4.7,1.6s1.8,2.5,1.8,4.1c0,1.7-0.6,3.1-1.8,4.2S211.7,80.6,209.8,80.6z"/>
	<path id="XMLID_133_" class="st0" d="M246.7,80.6c-7.2,0-13.1-2.3-17.6-7c-4.5-4.7-6.8-10.9-6.8-18.4c0-7.9,2.3-14.4,6.9-19.3
		c4.6-4.9,10.7-7.4,18.4-7.4c7.2,0,13,2.4,17.4,7.1c4.5,4.7,6.7,10.9,6.7,18.6c0,7.9-2.3,14.3-6.9,19.2c-0.2,0.2-0.3,0.3-0.5,0.5
		s-0.3,0.3-0.5,0.4l12.8,12.3h-15.9l-6.7-6.8C251.8,80.3,249.4,80.6,246.7,80.6z M247.2,38.2c-4,0-7.1,1.5-9.5,4.5
		c-2.3,3-3.5,6.9-3.5,11.8c0,5,1.2,8.9,3.5,11.8c2.3,2.9,5.4,4.4,9.2,4.4c3.9,0,7-1.4,9.3-4.2c2.3-2.9,3.4-6.8,3.4-11.8
		c0-5.2-1.1-9.3-3.3-12.2C254.1,39.7,251.1,38.2,247.2,38.2z"/>
</g>
<rect id="XMLID_36_" x="76.4" y="70.8" class="st0" width="53.6" height="10"/>
<rect id="XMLID_35_" x="82" y="44.7" class="st0" width="10" height="20"/>
<rect id="XMLID_34_" x="98.1" y="44.7" class="st0" width="10" height="20"/>
<rect id="XMLID_33_" x="114.7" y="44.7" class="st0" width="10" height="20"/>
<polygon id="XMLID_31_" class="st0" points="104.8,23.1 76.4,38.4 130,38.4 "/>
</svg>
